<svg width="24" height="24" viewBox="0 0 24 24" fill="none" xmlns="http://www.w3.org/2000/svg">
<circle cx="12" cy="12" r="12" fill="white"/>
<path d="M13.8068 10.4766L16.9318 7.27734L16.9205 9.09375C16.9205 9.16406 16.947 9.22852 17 9.28711C17.053 9.3457 17.1136 9.375 17.1818 9.375H17.375C17.4508 9.36719 17.5133 9.3418 17.5625 9.29883C17.6117 9.25586 17.6402 9.19922 17.6477 9.12891V6.42188L17.642 6.41602L17.6364 6.41016L17.6591 6.26953C17.6591 6.19141 17.6364 6.12891 17.5909 6.08203C17.5379 6.02734 17.4773 6 17.4091 6L17.2727 6.01172H17.2614L14.6591 6C14.6212 6 14.5852 6.00781 14.5511 6.02344C14.517 6.03906 14.4886 6.05859 14.4659 6.08203C14.4432 6.10547 14.4242 6.13477 14.4091 6.16992C14.3939 6.20508 14.3864 6.24219 14.3864 6.28125V6.46875C14.3939 6.55469 14.428 6.62305 14.4886 6.67383C14.5492 6.72461 14.6174 6.75 14.6932 6.75H16.4091L13.2955 9.94922C13.2197 10.0195 13.1818 10.1074 13.1818 10.2129C13.1818 10.3184 13.2197 10.4062 13.2955 10.4766C13.4242 10.6172 13.572 10.6367 13.7386 10.5352C13.7614 10.5117 13.7841 10.4922 13.8068 10.4766ZM9.86364 13.5L6.73864 16.6992L6.75 14.8828C6.75 14.8125 6.72348 14.748 6.67045 14.6895C6.61742 14.6309 6.55682 14.6016 6.48864 14.6016H6.28409C6.25379 14.6094 6.22159 14.6191 6.1875 14.6309C6.15341 14.6426 6.12311 14.6582 6.09659 14.6777C6.07008 14.6973 6.05114 14.7227 6.03977 14.7539C6.02841 14.7852 6.01894 14.8164 6.01136 14.8477V17.5547L6.01705 17.5605L6.02273 17.5664L6 17.707C6 17.7461 6.00568 17.7812 6.01705 17.8125C6.02841 17.8438 6.04545 17.8711 6.06818 17.8945C6.12121 17.9492 6.18182 17.9766 6.25 17.9766L6.38636 17.9648H6.39773L9.01136 17.9766C9.08712 17.9766 9.15152 17.9492 9.20455 17.8945C9.25758 17.8398 9.28409 17.7734 9.28409 17.6953V17.5078C9.27652 17.4219 9.24242 17.3535 9.18182 17.3027C9.12121 17.252 9.05303 17.2266 8.97727 17.2266H7.26136L10.375 14.0273C10.4129 13.9883 10.4413 13.9473 10.4602 13.9043C10.4792 13.8613 10.4886 13.8145 10.4886 13.7637C10.4886 13.7129 10.4792 13.6641 10.4602 13.6172C10.4413 13.5703 10.4129 13.5312 10.375 13.5C10.3295 13.4531 10.2765 13.4199 10.2159 13.4004C10.1553 13.3809 10.0928 13.3809 10.0284 13.4004C9.96402 13.4199 9.90909 13.4531 9.86364 13.5ZM17.6477 17.5547V14.8477C17.6402 14.7773 17.6117 14.7207 17.5625 14.6777C17.5133 14.6348 17.4508 14.6094 17.375 14.6016H17.1818C17.1136 14.6016 17.053 14.6289 17 14.6836C16.947 14.7383 16.9205 14.8047 16.9205 14.8828L16.9318 16.6992L13.8068 13.5C13.7614 13.4531 13.7064 13.4199 13.642 13.4004C13.5777 13.3809 13.5152 13.3809 13.4545 13.4004C13.3939 13.4199 13.3409 13.4531 13.2955 13.5C13.2197 13.5703 13.1818 13.6582 13.1818 13.7637C13.1818 13.8691 13.2197 13.957 13.2955 14.0273L16.4091 17.2266H14.6932C14.6402 17.2266 14.5928 17.2363 14.5511 17.2559C14.5095 17.2754 14.4735 17.3086 14.4432 17.3555C14.4129 17.4023 14.3939 17.4531 14.3864 17.5078V17.6953C14.3864 17.75 14.3996 17.7988 14.4261 17.8418C14.4527 17.8848 14.4848 17.918 14.5227 17.9414C14.5606 17.9648 14.6061 17.9766 14.6591 17.9766L17.2614 17.9648H17.2727L17.4091 17.9766C17.4773 17.9766 17.5379 17.9492 17.5909 17.8945C17.6364 17.8477 17.6591 17.7852 17.6591 17.707L17.6364 17.5664H17.6477V17.5547ZM7.26136 6.75H8.97727C9.05303 6.75 9.12121 6.72461 9.18182 6.67383C9.24242 6.62305 9.27652 6.55469 9.28409 6.46875V6.28125C9.28409 6.20312 9.25758 6.13672 9.20455 6.08203C9.15152 6.02734 9.08712 6 9.01136 6L6.39773 6.01172H6.38636L6.25 6C6.18182 6 6.12121 6.02734 6.06818 6.08203C6.04545 6.10547 6.02841 6.13281 6.01705 6.16406C6.00568 6.19531 6 6.23047 6 6.26953L6.02273 6.41016H6.01705L6.01136 6.42188V9.12891C6.01894 9.19922 6.04735 9.25586 6.09659 9.29883C6.14583 9.3418 6.20833 9.36719 6.28409 9.375H6.48864C6.53409 9.375 6.57765 9.36133 6.61932 9.33398C6.66098 9.30664 6.69318 9.27148 6.71591 9.22852C6.73864 9.18555 6.75 9.14062 6.75 9.09375L6.73864 7.27734L9.86364 10.4766C9.93182 10.5547 10.017 10.5938 10.1193 10.5938C10.2216 10.5938 10.3087 10.5566 10.3807 10.4824C10.4527 10.4082 10.4886 10.3184 10.4886 10.2129C10.4886 10.1074 10.4508 10.0195 10.375 9.94922L7.26136 6.75Z" fill="#CD0405"/>
</svg>
